<?xml version="1.0" encoding="UTF-8" standalone="no"?>
<svg width="95px" height="95px" viewBox="0 0 95 95" version="1.1" xmlns="http://www.w3.org/2000/svg" xmlns:xlink="http://www.w3.org/1999/xlink" xmlns:sketch="http://www.bohemiancoding.com/sketch/ns">
    <!-- Generator: Sketch 3.4.2 (15855) - http://www.bohemiancoding.com/sketch -->
    <title>Artboard 1</title>
    <desc>Created with Sketch.</desc>
    <defs></defs>
    <g id="Page-1" stroke="none" stroke-width="1" fill="none" fill-rule="evenodd" sketch:type="MSPage">
        <g id="Artboard-1" sketch:type="MSArtboardGroup">
            <circle id="Oval-1" fill="#000000" sketch:type="MSShapeGroup" cx="47.5" cy="47.5" r="47.5"></circle>
            <g id="meta" sketch:type="MSLayerGroup" transform="translate(23.000000, 13.000000)" fill="#FFFFFF">
                <g id="svg4231" sketch:type="MSShapeGroup">
                    <g id="layer1">
                        <path d="M0.2066776,34.963544 L4.607985,35.006704 L4.454544,54.605097 L33.745802,54.605097 L33.745802,35.077591 L38.383584,35.077591 L38.383584,59.364922 L0.182905,59.364922 L0.206682,34.963551 L0.2066776,34.963544 Z" id="path2830"></path>
                        <rect id="rect3604" x="7.383667" y="46.549992" width="22.944817" height="4.881876"></rect>
                        <rect id="rect3606" transform="translate(19.161196, 41.362994) rotate(5.512716) translate(-19.161196, -41.362994) " x="7.62776413" y="38.8610324" width="23.0668639" height="5.00392289"></rect>
                        <rect id="rect3606-1" transform="translate(20.442684, 33.368931) rotate(15.761041) translate(-20.442684, -33.368931) " x="8.9092519" y="30.8669691" width="23.066864" height="5.0039229"></rect>
                        <rect id="rect3606-1-3" transform="translate(23.982050, 24.703606) rotate(31.132046) translate(-23.982050, -24.703606) " x="12.4486182" y="22.2016443" width="23.066864" height="5.00392289"></rect>
                        <rect id="rect3606-1-3-7" transform="translate(31.317910, 16.797366) rotate(54.378581) translate(-31.317910, -16.797366) " x="19.7844778" y="14.2954047" width="23.066864" height="5.0039229"></rect>
                        <rect id="rect3606-1-3-7-6" transform="translate(41.673921, 12.654967) rotate(80.513809) translate(-41.673921, -12.654967) " x="30.1404894" y="10.1530055" width="23.066864" height="5.00392289"></rect>
                    </g>
                </g>
            </g>
        </g>
    </g>
</svg>